<svg width="100" height="100" viewBox="0 0 100 100" fill="none" xmlns="http://www.w3.org/2000/svg">
<rect width="100" height="100" fill="white"/>
<path d="M45.552 23.8202V21.0499C45.552 19.3655 44.1946 18 42.52 18H15.2321C13.5574 18 12.2 19.3654 12.2 21.0499V39H88V28.9033C88 27.219 86.6426 25.8534 84.968 25.8534H47.5734C46.457 25.8534 45.552 24.9431 45.552 23.8202Z" fill="#1A8BFF"/>
<path d="M83.9573 82H16.2427C14.01 82 12.2 80.1823 12.2 77.9399V38.09H45.6652C46.5179 38.09 47.3312 37.7294 47.9057 37.0966L51.6307 32.9934C52.2051 32.3606 53.0185 32 53.8712 32H88V77.9399C88 80.1823 86.19 82 83.9573 82Z" fill="#80BFFF"/>
</svg>
